<?xml version="1.0" encoding="UTF-8"?>
<svg id="Layer_1" xmlns="http://www.w3.org/2000/svg" xmlns:xlink="http://www.w3.org/1999/xlink" version="1.1" viewBox="0 0 644 32">
  <!-- Generator: Adobe Illustrator 29.0.1, SVG Export Plug-In . SVG Version: 2.1.0 Build 192)  -->
  <defs>
    <style>
      .st0, .st1 {
        fill: none;
      }

      .st2 {
        fill: #e3e3e3;
      }

      .st3 {
        fill: #f4bd50;
      }

      .st4 {
        fill: #25334d;
      }

      .st5 {
        fill: #ed6a5e;
      }

      .st6 {
        fill: #5a5a5a;
      }

      .st1 {
        stroke: #000;
        stroke-opacity: .1;
        stroke-width: .8px;
      }

      .st7 {
        font-family: MyriadPro-Regular, 'Myriad Pro';
        font-size: 9.2px;
      }

      .st7, .st8 {
        fill: #fff;
      }

      .st9 {
        clip-path: url(#clippath-1);
      }

      .st10 {
        clip-path: url(#clippath-3);
      }

      .st11 {
        clip-path: url(#clippath-4);
      }

      .st12 {
        clip-path: url(#clippath-2);
      }

      .st13 {
        clip-path: url(#clippath-5);
      }

      .st14 {
        fill: #b7b7b7;
      }

      .st15 {
        fill: #61c454;
      }

      .st16 {
        fill: #3c5175;
      }

      .st17 {
        clip-path: url(#clippath);
      }
    </style>
    <clipPath id="clippath">
      <rect class="st0" y="0" width="644" height="31.1"/>
    </clipPath>
    <clipPath id="clippath-1">
      <rect class="st0" x="556.9" y="5.4" width="74.7" height="18.7"/>
    </clipPath>
    <clipPath id="clippath-2">
      <rect class="st0" x="74.7" y="5.4" width="76.2" height="18.7"/>
    </clipPath>
    <clipPath id="clippath-3">
      <rect class="st0" x="15.6" y="10.9" width="40.4" height="9.3"/>
    </clipPath>
    <clipPath id="clippath-4">
      <rect class="st0" x="234.1" y="4.7" width="175.8" height="21.8"/>
    </clipPath>
    <clipPath id="clippath-5">
      <rect class="st0" x="395.5" y="10.1" width="10.1" height="10.9"/>
    </clipPath>
  </defs>
  <g class="st17">
    <g>
      <path class="st4" d="M0,12.4c0-4.4,0-6.5.8-8.2.7-1.5,1.9-2.7,3.4-3.4C5.9,0,8.1,0,12.4,0h619.1C635.9,0,638.1,0,639.8.8c1.5.7,2.7,1.9,3.4,3.4.8,1.7.8,3.8.8,8.2v18.7H0V12.4Z"/>
      <g class="st9">
        <g>
          <path class="st14" d="M566.2,16.6c.3,0,.6-.3.6-.6v-7.4s.3.5.3.5l.9,1c.1.1.3.2.4.2.3,0,.5-.2.5-.5s0-.3-.2-.4l-2.2-2.1c-.2-.2-.3-.2-.5-.2s-.3,0-.5.2l-2.2,2.1c-.1.1-.2.2-.2.4,0,.3.2.5.5.5s.3,0,.4-.2l.9-1,.4-.5v1c0,0,0,6.5,0,6.5,0,.3.3.6.6.6ZM562.5,21.8h7.4c1.4,0,2.1-.7,2.1-2.1v-6.3c0-1.4-.7-2.1-2.1-2.1h-1.7v1.3h1.7c.6,0,.9.3.9.9v6.1c0,.6-.3.9-.9.9h-7.3c-.6,0-.9-.3-.9-.9v-6.1c0-.6.3-.9.9-.9h1.7v-1.3h-1.8c-1.4,0-2.1.7-2.1,2.1v6.3c0,1.4.7,2.1,2.1,2.1Z"/>
          <path class="st14" d="M593.4,20.2c.4,0,.7-.3.7-.7v-4h4c.4,0,.7-.3.7-.7s-.3-.7-.7-.7h-4v-4c0-.4-.3-.7-.7-.7s-.7.3-.7.7v4h-4c-.4,0-.7.3-.7.7s.4.7.7.7h4v4c0,.4.3.7.7.7Z"/>
          <path class="st14" d="M617.3,18.7h1.1v1c0,1.4.7,2.1,2.1,2.1h6.5c1.4,0,2.1-.7,2.1-2.1v-6.6c0-1.4-.7-2.1-2.1-2.1h-1.1v-1c0-1.4-.7-2.1-2.1-2.1h-6.5c-1.4,0-2.1.7-2.1,2.1v6.6c0,1.4.7,2.1,2.1,2.1ZM617.4,17.4c-.6,0-.9-.3-.9-.9v-6.3c0-.6.3-.9.9-.9h6.4c.6,0,.9.3.9.9v.9h-4.2c-1.4,0-2.1.7-2.1,2.1v4.3h-1ZM620.6,20.5c-.6,0-.9-.3-.9-.9v-6.4c0-.6.3-.9.9-.9h6.4c.6,0,.9.3.9.9v6.4c0,.6-.3.9-.9.9h-6.4Z"/>
        </g>
      </g>
      <g class="st12">
        <g>
          <path class="st14" d="M78.3,21.4h11c1.4,0,2.1-.7,2.1-2.1v-7.9c0-1.4-.7-2.1-2.1-2.1h-11c-1.4,0-2.1.7-2.1,2.1v7.9c0,1.4.7,2.1,2.1,2.1ZM78.4,20.1c-.6,0-.9-.3-.9-.9v-7.6c0-.6.3-.9.9-.9h2.9v9.5h-2.9ZM89.3,10.6c.6,0,.9.3.9.9v7.6c0,.6-.3.9-.9.9h-6.7v-9.5h6.7ZM80.1,13c.2,0,.4-.2.4-.4s-.2-.4-.4-.4h-1.3c-.2,0-.4.2-.4.4s.2.4.4.4h1.3ZM80.1,14.7c.2,0,.4-.2.4-.4s-.2-.4-.4-.4h-1.3c-.2,0-.4.2-.4.4s.2.4.4.4h1.3ZM80.1,16.4c.2,0,.4-.2.4-.4s-.2-.4-.4-.4h-1.3c-.2,0-.4.2-.4.4s.2.4.4.4h1.3Z"/>
          <path class="st14" d="M116.2,20.3l-4.7-4.6c-.2-.2-.2-.3-.2-.6s0-.4.3-.6l4.7-4.6c.1-.1.3-.2.5-.2.4,0,.7.3.7.7s0,.4-.2.5l-4.3,4.1,4.3,4.2c.1.1.2.3.2.5,0,.4-.3.7-.7.7s-.4,0-.5-.2Z"/>
          <path class="st6" d="M139.6,20.5c.2,0,.4,0,.5-.2l4.7-4.6c.2-.2.2-.3.2-.6s0-.4-.2-.6l-4.7-4.6c-.1-.1-.3-.2-.5-.2-.4,0-.7.3-.7.7s0,.4.2.5l4.3,4.2-4.3,4.1c-.1.1-.2.3-.2.5,0,.4.3.7.7.7Z"/>
        </g>
      </g>
      <g class="st10">
        <g>
          <circle class="st5" cx="20.2" cy="15.6" r="4.7"/>
          <circle class="st1" cx="20.2" cy="15.6" r="4.3"/>
          <circle class="st3" cx="35.8" cy="15.6" r="4.7"/>
          <circle class="st1" cx="35.8" cy="15.6" r="4.3"/>
          <circle class="st15" cx="51.3" cy="15.6" r="4.7"/>
          <circle class="st1" cx="51.3" cy="15.6" r="4.3"/>
        </g>
      </g>
      <path class="st14" d="M220.9,21.8c.1,0,.3,0,.4-.1,3.7-2,5-3,5-5.3v-4.9c0-.8-.3-1.1-.9-1.3-.7-.3-3.1-1.1-3.8-1.4-.2,0-.5-.1-.7-.1s-.5,0-.7.1c-.7.2-3.1,1.1-3.8,1.4-.6.3-.9.6-.9,1.3v4.9c0,2.4,1.3,3.3,5,5.3.2,0,.3.1.5.1ZM221.2,9.9c.8.3,2.7,1,3.6,1.3.2,0,.2.2.2.4v4.5c0,1.9-.9,2.4-3.8,4.2-.2.1-.3.1-.4.1v-10.6c0,0,.2,0,.3,0Z"/>
      <g class="st11">
        <g>
          <path class="st16" d="M234.1,12.1c0-2.6,0-3.9.5-4.9.4-.9,1.2-1.6,2-2,1-.5,2.3-.5,4.9-.5h160.8c2.6,0,3.9,0,4.9.5.9.4,1.6,1.2,2,2,.5,1,.5,2.3.5,4.9v6.8c0,2.6,0,3.9-.5,4.9-.4.9-1.2,1.6-2,2-1,.5-2.3.5-4.9.5h-160.8c-2.6,0-3.9,0-4.9-.5-.9-.4-1.6-1.2-2-2-.5-1-.5-2.3-.5-4.9v-6.8Z"/>
          <path class="st8" d="M281.8,13.8l-1.7,6.2h-1.3l-1.3-4.6h0l-1.3,4.6h-1.3l-1.7-6.2h1.3l1.1,4.9h0l1.3-4.9h1.2l1.3,4.9h0l1.1-4.9h1.3ZM290.7,13.8l-1.7,6.2h-1.3l-1.3-4.6h0l-1.3,4.6h-1.3l-1.7-6.2h1.3l1.1,4.9h0l1.3-4.9h1.2l1.3,4.9h0l1.1-4.9h1.3ZM299.6,13.8l-1.7,6.2h-1.3l-1.3-4.6h0l-1.3,4.6h-1.3l-1.7-6.2h1.3l1.1,4.9h0l1.3-4.9h1.2l1.3,4.9h0l1.1-4.9h1.3ZM301.2,19.8c-.1.1-.3.2-.5.2s-.4,0-.5-.2c-.1-.1-.2-.3-.2-.5s0-.4.2-.5c.1-.1.3-.2.5-.2s.4,0,.5.2c.1.1.2.3.2.5s0,.4-.2.5ZM305,19c.4,0,.8-.1,1.1-.4.3-.3.5-.6.5-1v-.5h-1.5c-.4.1-.7.2-.9.4-.2.2-.3.4-.3.6s.1.5.3.7c.2.2.5.2.8.2ZM304.7,20c-.6,0-1.1-.2-1.5-.5-.4-.3-.6-.8-.6-1.3s.2-1,.6-1.3c.4-.3,1-.5,1.7-.5h1.7v-.6c0-.3-.1-.6-.3-.8-.2-.2-.5-.3-.9-.3s-.7,0-.9.2c-.2.2-.4.4-.4.7h-1.2c0-.6.3-1,.7-1.4.5-.4,1.1-.5,1.8-.5s1.3.2,1.8.6c.4.4.7.9.7,1.5v4.2h-1.2v-1h0c-.2.3-.4.6-.8.8-.4.2-.7.3-1.1.3ZM309.7,22.2c-.2,0-.4,0-.5,0v-1c0,0,.2,0,.4,0s.5,0,.7-.2c.2-.1.3-.4.4-.7,0,0,0,0,0-.2v-.2c0,0-2.2-6.2-2.2-6.2h1.4l1.6,5h0l1.6-5h1.3l-2.3,6.5c-.3.7-.6,1.3-.9,1.5-.4.3-.9.4-1.5.4ZM320.4,13.8v6.2h-1.2v-1h0c-.4.8-1,1.2-1.9,1.2s-1.2-.2-1.6-.6c-.4-.4-.6-1-.6-1.7v-4h1.3v3.7c0,.5.1.8.3,1.1.2.2.6.4,1,.4s.8-.1,1.1-.4c.3-.3.4-.7.4-1.2v-3.6h1.3ZM321.6,15.5c0-.6.2-1,.7-1.3.4-.3,1-.5,1.7-.5s1.2.2,1.7.5c.4.3.7.8.7,1.3h-1.2c0-.3-.2-.5-.4-.7-.2-.2-.5-.2-.8-.2s-.6,0-.8.2c-.2.2-.3.3-.3.6,0,.4.3.6.9.8l1,.2c.6.1,1.1.4,1.3.6.3.3.4.6.4,1.1s-.2,1-.7,1.4c-.5.4-1.1.5-1.8.5s-1.3-.2-1.8-.5c-.5-.3-.7-.8-.8-1.4h1.3c0,.3.2.5.4.7.2.2.5.2.9.2s.7,0,.9-.2c.2-.1.3-.3.3-.6s0-.4-.2-.5c-.1-.1-.4-.2-.7-.3l-1.1-.3c-1.1-.3-1.7-.8-1.7-1.7ZM327.5,19.9v-8.5h1.3v3.3h0c.2-.4.4-.6.8-.8.3-.2.7-.3,1.2-.3.7,0,1.2.2,1.6.6.4.4.6,1,.6,1.7v4h-1.3v-3.7c0-.5-.1-.8-.3-1.1-.2-.3-.6-.4-1-.4s-.8.1-1.1.4c-.3.3-.4.7-.4,1.2v3.6h-1.3ZM334.1,15.5c0-.6.2-1,.7-1.3.4-.3,1-.5,1.7-.5s1.2.2,1.7.5c.4.3.7.8.7,1.3h-1.2c0-.3-.2-.5-.4-.7-.2-.2-.5-.2-.8-.2s-.6,0-.8.2c-.2.2-.3.3-.3.6,0,.4.3.6.9.8l1,.2c.6.1,1.1.4,1.3.6.3.3.4.6.4,1.1s-.2,1-.7,1.4c-.5.4-1.1.5-1.8.5s-1.3-.2-1.8-.5c-.5-.3-.7-.8-.8-1.4h1.3c0,.3.2.5.4.7.2.2.5.2.9.2s.7,0,.9-.2c.2-.1.3-.3.3-.6s0-.4-.2-.5c-.1-.1-.4-.2-.7-.3l-1.1-.3c-1.1-.3-1.7-.8-1.7-1.7ZM340,19.9v-6.2h1.3v6.2h-1.3ZM341.2,12.7c-.1.1-.3.2-.5.2s-.4,0-.5-.2c-.1-.1-.2-.3-.2-.5s0-.4.2-.5c.1-.1.3-.2.5-.2s.4,0,.5.2c.1.1.2.3.2.5s0,.4-.2.5ZM342.6,19.9v-6.2h1.2v1h0c.2-.4.4-.6.8-.8.3-.2.7-.3,1.2-.3.7,0,1.2.2,1.6.6.4.4.6,1,.6,1.7v4h-1.3v-3.7c0-.5-.1-.8-.3-1.1-.2-.2-.5-.4-1-.4s-.8.1-1.1.4c-.3.3-.4.7-.4,1.2v3.6h-1.3ZM351.7,18.9c.5,0,.9-.2,1.2-.6.3-.4.5-.9.5-1.5s-.1-1.1-.5-1.5c-.3-.4-.7-.6-1.2-.6s-.9.2-1.2.6c-.3.4-.4.9-.4,1.5s.1,1.1.4,1.5c.3.4.7.6,1.2.6ZM351.7,22.3c-.7,0-1.3-.2-1.8-.5-.5-.3-.8-.8-.9-1.3h1.3c0,.3.3.5.5.6.3.2.6.2.9.2s.9-.1,1.2-.4c.3-.3.4-.6.4-1v-1h0c-.2.3-.4.6-.8.8-.3.2-.7.3-1.2.3-.8,0-1.4-.3-1.9-.8-.5-.6-.7-1.3-.7-2.3s.2-1.7.7-2.3c.5-.6,1.1-.9,1.9-.9s.8.1,1.2.3c.3.2.6.5.8.8h0v-1.1h1.2v6.1c0,.7-.3,1.3-.8,1.8-.5.4-1.2.7-2.1.7ZM355.9,19.9v-8.5h1.3v3.3h0c.2-.4.4-.6.8-.8.3-.2.7-.3,1.2-.3.7,0,1.2.2,1.6.6.4.4.6,1,.6,1.7v4h-1.3v-3.7c0-.5-.1-.8-.3-1.1-.2-.3-.6-.4-1-.4s-.8.1-1.1.4c-.3.3-.4.7-.4,1.2v3.6h-1.3ZM364.1,19.8c-.1.1-.3.2-.5.2s-.4,0-.5-.2c-.1-.1-.2-.3-.2-.5s0-.4.2-.5c.1-.1.3-.2.5-.2s.4,0,.5.2c.1.1.2.3.2.5s0,.4-.2.5ZM365.7,19.9v-6.2h1.2v1h0c.2-.4.4-.6.8-.8.3-.2.7-.3,1.2-.3.7,0,1.2.2,1.6.6.4.4.6,1,.6,1.7v4h-1.3v-3.7c0-.5-.1-.8-.3-1.1-.2-.2-.5-.4-1-.4s-.8.1-1.1.4c-.3.3-.4.7-.4,1.2v3.6h-1.3ZM375.9,15.1c-.3-.3-.6-.4-1.1-.4s-.8.2-1.1.5c-.3.3-.4.7-.5,1.2h3.1c0-.5-.2-.9-.4-1.2ZM376.3,18.1h1.2c0,.6-.4,1-.9,1.4-.5.4-1.1.5-1.8.5s-1.6-.3-2.1-.8c-.5-.6-.8-1.3-.8-2.3s.3-1.7.8-2.3c.5-.6,1.2-.9,2.1-.9s1.5.3,2,.8c.5.6.8,1.3.8,2.2v.4h-4.4c0,.6.1,1,.5,1.4s.7.5,1.2.5.7,0,.9-.2c.3-.2.4-.4.5-.7ZM379,12.3h1.3v1.5h1.2v1h-1.2v3.4c0,.3,0,.5.2.6s.3.2.6.2.3,0,.4,0v1c-.2,0-.4,0-.7,0-.6,0-1.1-.1-1.3-.4-.3-.3-.4-.7-.4-1.3v-3.5h-.9v-1h.9v-1.5Z"/>
          <g class="st13">
            <path class="st2" d="M400.4,15.3c.1,0,.2,0,.3-.1l1.9-1.9c.1-.1.1-.2.1-.3s0-.2-.1-.3l-1.9-1.9c0,0-.2-.1-.3-.1-.2,0-.4.2-.4.5s0,.2.1.3l1.1,1.1c-.2,0-.4,0-.7,0-2.3,0-4.1,1.8-4.1,4.1s1.8,4.1,4.1,4.1,4.1-1.8,4.1-4.1-.2-.5-.5-.5-.4.2-.4.5c0,1.8-1.4,3.2-3.2,3.2s-3.2-1.4-3.2-3.2,1.4-3.2,3.2-3.2.6,0,.8,0l-1.2,1.2c0,0-.1.2-.1.3,0,.3.2.4.4.4Z"/>
          </g>
          <path class="st8" d="M248,10.2c-1.6,0-2.9,1.3-2.9,2.9v1.8h-.6c-.6,0-1.2.5-1.2,1.2v4.7c0,.6.5,1.2,1.2,1.2h7c.6,0,1.2-.5,1.2-1.2v-4.7c0-.6-.5-1.2-1.2-1.2h-.6v-1.8c0-1.6-1.3-2.9-2.9-2.9ZM251.5,16v4.7s-7,0-7,0v-4.7h7ZM246.2,14.8v-1.8c0-1,.8-1.8,1.8-1.8s1.8.8,1.8,1.8v1.8h-3.5Z"/>
        </g>
      </g>
    </g>
  </g>
  <rect class="st16" x="268.8" y="9.4" width="116" height="14.7"/>
  <text class="st7" transform="translate(265.9 18.7)"><tspan x="0" y="0">www.ranjeetkumarverma.com</tspan></text>
</svg>