<?xml version="1.0" encoding="UTF-8"?>
<svg id="Layer_2" data-name="Layer 2" xmlns="http://www.w3.org/2000/svg" xmlns:xlink="http://www.w3.org/1999/xlink" viewBox="0 0 71.66 74.33">
  <defs>
    <style>
      .cls-1, .cls-2 {
        fill: none;
      }

      .cls-3 {
        fill: #424acb;
      }

      .cls-4 {
        font-family: Montserrat-Bold, Montserrat;
        font-size: 10.07px;
        font-weight: 700;
      }

      .cls-4, .cls-5 {
        fill: #fff;
      }

      .cls-6 {
        fill: url(#Degradado_sin_nombre_33-2);
      }

      .cls-7 {
        fill: url(#Degradado_sin_nombre_32-3);
      }

      .cls-8 {
        fill: url(#Degradado_sin_nombre_32-2);
      }

      .cls-9 {
        fill: url(#Degradado_sin_nombre_29-4);
      }

      .cls-10 {
        fill: url(#Degradado_sin_nombre_29-2);
      }

      .cls-11 {
        fill: url(#Degradado_sin_nombre_29-3);
      }

      .cls-12 {
        fill: #f98429;
      }

      .cls-13 {
        letter-spacing: 0em;
      }

      .cls-2 {
        stroke: #fff;
        stroke-miterlimit: 10;
        stroke-width: .18px;
      }

      .cls-14 {
        fill: url(#Degradado_sin_nombre_33);
      }

      .cls-15 {
        fill: url(#Degradado_sin_nombre_32);
      }

      .cls-16 {
        fill: url(#Degradado_sin_nombre_29);
      }

      .cls-17 {
        letter-spacing: -.02em;
      }

      .cls-18 {
        letter-spacing: -.02em;
      }

      .cls-19 {
        letter-spacing: -.03em;
      }

      .cls-20 {
        letter-spacing: -.04em;
      }

      .cls-21 {
        letter-spacing: 0em;
      }

      .cls-22 {
        clip-path: url(#clippath);
      }
    </style>
    <linearGradient id="Degradado_sin_nombre_29" data-name="Degradado sin nombre 29" x1="38.89" y1=".06" x2="39.73" y2="34.65" gradientUnits="userSpaceOnUse">
      <stop offset="0" stop-color="#ffaf04"/>
      <stop offset="1" stop-color="#f98429"/>
    </linearGradient>
    <linearGradient id="Degradado_sin_nombre_32" data-name="Degradado sin nombre 32" x1="29.3" y1="44.24" x2="34.19" y2="34.88" gradientUnits="userSpaceOnUse">
      <stop offset="0" stop-color="#5354e4"/>
      <stop offset="1" stop-color="#0abef2"/>
    </linearGradient>
    <linearGradient id="Degradado_sin_nombre_32-2" data-name="Degradado sin nombre 32" x1="24.19" y1="45.32" x2="27.02" y2="36.3" xlink:href="#Degradado_sin_nombre_32"/>
    <linearGradient id="Degradado_sin_nombre_29-2" data-name="Degradado sin nombre 29" x1="35.54" y1="38.4" x2="43.92" y2="38.4" xlink:href="#Degradado_sin_nombre_29"/>
    <linearGradient id="Degradado_sin_nombre_29-3" data-name="Degradado sin nombre 29" x1="39.7" y1="35.68" x2="39.81" y2="37.78" xlink:href="#Degradado_sin_nombre_29"/>
    <clipPath id="clippath">
      <path class="cls-1" d="M54.58,14.85C54.58,6.28,47.33-.59,38.63.04c-7.28.52-13.17,6.39-13.71,13.67-.42,5.6,2.28,10.61,6.54,13.46,2.53,1.7,4.05,4.54,4.05,7.59h8.43c0-3.06,1.54-5.9,4.07-7.61,3.96-2.67,6.56-7.19,6.56-12.32Z"/>
    </clipPath>
    <linearGradient id="Degradado_sin_nombre_29-4" data-name="Degradado sin nombre 29" x1="52.01" y1="30.2" x2="40.76" y2="17.06" xlink:href="#Degradado_sin_nombre_29"/>
    <linearGradient id="Degradado_sin_nombre_33" data-name="Degradado sin nombre 33" x1="48.53" y1="17.7" x2="13.58" y2="4.13" gradientUnits="userSpaceOnUse">
      <stop offset="0" stop-color="#ffaf04"/>
      <stop offset=".52" stop-color="#f98429"/>
    </linearGradient>
    <linearGradient id="Degradado_sin_nombre_33-2" data-name="Degradado sin nombre 33" x1="39.23" y1="13.47" x2="19.53" y2="5.82" xlink:href="#Degradado_sin_nombre_33"/>
    <linearGradient id="Degradado_sin_nombre_32-3" data-name="Degradado sin nombre 32" x1="42.58" y1="65.12" x2="32.54" y2="28.36" xlink:href="#Degradado_sin_nombre_32"/>
  </defs>
  <g id="OBJECTS">
    <g>
      <path class="cls-5" d="M11.5,19.45h0c.32,1.12,1.2,2,2.32,2.32h0c-1.12.32-2,1.2-2.32,2.32h0c-.32-1.12-1.2-2-2.32-2.32h0c1.12-.32,2-1.2,2.32-2.32h0Z"/>
      <path class="cls-5" d="M21.1,11.77h0c.15.53.57.94,1.1,1.1h0c-.53.15-.94.57-1.1,1.1h0c-.15-.53-.57-.94-1.1-1.1h0c.53-.15.94-.57,1.1-1.1h0Z"/>
      <ellipse class="cls-2" cx="33.78" cy="28.34" rx="36.16" ry="10.99" transform="translate(-8.25 15.02) rotate(-22.41)"/>
      <g>
        <path class="cls-16" d="M54.09,14.85C54.09,6.28,46.84-.59,38.15.04c-7.28.52-13.17,6.39-13.71,13.67-.42,5.6,2.28,10.61,6.54,13.46,2.53,1.7,4.05,4.54,4.05,7.59h8.43c0-3.06,1.54-5.9,4.07-7.61,3.96-2.67,6.56-7.19,6.56-12.32Z"/>
        <path class="cls-15" d="M21.8,34.61s-1.91-4.32-.23-7.95c1.22-2.66,6.15-1.94,7.52,5.47,1.37,7.42,6.93,14.61,14.91,16.38,0,0-15.99,2.59-22.19-13.9Z"/>
        <path class="cls-3" d="M38.32,47.43s-4.22-.5-8.57-4.03c-3.76-3.05-7.91-7.81-11.35-14.21,0,0,5.86,18,19.92,18.24Z"/>
        <path class="cls-8" d="M15.01,37.39s-2.59-3.95-1.54-7.8c.77-2.82,5.75-2.93,8.32,4.16,2.57,7.09,9.24,13.27,17.4,13.7,0,0-15.35,5.18-24.18-10.06Z"/>
        <path class="cls-10" d="M35.54,35.96h8.38v.7c0,2.31-1.88,4.19-4.19,4.19h0c-2.31,0-4.18-1.86-4.19-4.17v-.72Z"/>
        <path class="cls-11" d="M37.37,35.96h4.73v.39c0,1.31-1.06,2.36-2.36,2.36h0c-1.3,0-2.36-1.05-2.36-2.35v-.4Z"/>
        <path class="cls-3" d="M37.84,48.2s-3.94-.3-9.05-2.61c-4.41-1.99-9.63-5.54-14.59-10.85,0,0,9.98,16.81,23.64,13.46Z"/>
        <g class="cls-22">
          <path class="cls-9" d="M54.58,14.85C54.58,6.28,47.33-.59,38.63.04c-7.28.52-13.17,6.39-13.71,13.67-.42,5.6,2.28,10.61,6.54,13.46,2.53,1.7,4.05,4.54,4.05,7.59h8.43c0-3.06,1.54-5.9,4.07-7.61,3.96-2.67,6.56-7.19,6.56-12.32Z"/>
          <circle class="cls-12" cx="34.01" cy="12.75" r="14.39" transform="translate(-1.62 5.69) rotate(-9.33)"/>
          <circle class="cls-14" cx="32.47" cy="11.47" r="14.39"/>
          <circle class="cls-12" cx="31.52" cy="10.82" r="8.59"/>
          <circle class="cls-6" cx="30.18" cy="9.95" r="8.11"/>
        </g>
        <path class="cls-7" d="M32.09,47.71c7.08,1.59,14.08-2.97,15.76-10.02.82-3.46,2.38-7.97,5.1-9.8,4.67-3.13,7.44.36,5.59,4.16-1.85,3.8-.92,10.73-2.36,15.96-4,14.51-16.79,16.14-29.42,10.65-14.72-6.41-20.37-23.56-17.65-25.22,3.17-1.93,7.31,2.99,10.68,6.78,1.83,2.05,6.6,6.22,12.3,7.5Z"/>
      </g>
    </g>
  </g>
  <g id="TEXTS">
    <text class="cls-4" transform="translate(5.73 71.65)"><tspan x="0" y="0">INN</tspan><tspan class="cls-17" x="19.57" y="0">O</tspan><tspan class="cls-20" x="27.84" y="0">V</tspan><tspan class="cls-19" x="34.97" y="0">A</tspan><tspan class="cls-13" x="42.33" y="0">T</tspan><tspan class="cls-21" x="48.55" y="0">I</tspan><tspan class="cls-18" x="51.81" y="0">V</tspan><tspan x="59.17" y="0">E</tspan></text>
  </g>
</svg>