<?xml version="1.0" encoding="UTF-8"?>
<svg id="Layer_2" data-name="Layer 2" xmlns="http://www.w3.org/2000/svg" viewBox="0 0 67.55 62.26">
  <defs>
    <style>
      .cls-1 {
        fill: #fd425f;
      }

      .cls-2 {
        fill: #e42244;
      }

      .cls-3 {
        fill: #9c9eb9;
      }

      .cls-4 {
        fill: #d0d1de;
      }

      .cls-5 {
        fill: #00a7cc;
      }

      .cls-6 {
        fill: #f88667;
      }

      .cls-7 {
        fill: #e45940;
      }

      .cls-8 {
        fill: #01c7e2;
      }

      .cls-9 {
        fill: #fefefe;
      }

      .cls-10 {
        fill: #110239;
      }

      .cls-11 {
        fill: #fff;
        font-family: Arial-BoldMT, Arial;
        font-size: 8.87px;
        font-weight: 700;
      }
    </style>
  </defs>
  <g id="Layer_1-2" data-name="Layer 1">
    <g>
      <g>
        <rect class="cls-10" x="9.57" y="31.63" width="45.37" height="6.66"/>
        <rect class="cls-10" x="5.26" width="53.98" height="36.19" rx="2.78" ry="2.78"/>
        <rect class="cls-9" x="7.75" y="2.4" width="49.01" height="31.02"/>
        <g>
          <g>
            <path class="cls-10" d="M0,45.85v.99c0,.55.6.99,1.33.99h61.84c.73,0,1.33-.44,1.33-.99v-.99H0Z"/>
            <path class="cls-10" d="M32.25,38.22H5.78c-.09.09-4.25,3.82-5.52,6.59-.54,1.18-.19,1.81.82,1.81h31.18s31.18,0,31.18,0c1.01,0,1.37-.62.82-1.81-1.27-2.77-5.43-6.49-5.52-6.59h-26.48Z"/>
            <polygon class="cls-3" points="61.15 45.19 4.74 45.19 8.65 39.41 57.25 39.41 61.15 45.19"/>
            <path class="cls-4" d="M60.47,44.18l-.12-.18h-3.76l-.7-1.4h3.52l-.12-.18h-3.49l-.7-1.4h3.24l-.12-.18h-3.21l-.71-1.42h-.33l.7,1.42h-4.03l-.57-1.42h-.33l.55,1.42h-4.03l-.42-1.42h-.33l.41,1.42h-4.03l-.28-1.42h-.33l.27,1.42h-4.03l-.13-1.42h-.33l.12,1.42h-3.83v-1.42h-.36v1.42h-3.97l.12-1.42h-.33l-.13,1.42h-4.03l.27-1.42h-.33l-.28,1.42h-4.03l.41-1.42h-.33l-.42,1.42h-4.03l.55-1.42h-.33l-.57,1.42h-4.03l.7-1.42h-.33l-.71,1.42h-3.55l-.12.18h3.59l-.7,1.4h-3.83l-.12.18h3.87l-.7,1.4h-4.11l-.12.18h4.14l-.51,1.02h.37l.5-1.02h4.34l-.4,1.02h.37l.4-1.02h4.34l-.3,1.02h.37l.29-1.02h4.34l-.2,1.02h.37l.19-1.02h4.34l-.09,1.02h.37l.09-1.02h4.25v1.02h.36v-1.02h4.11l.09,1.02h.37l-.09-1.02h4.34l.19,1.02h.37l-.2-1.02h4.34l.29,1.02h.37l-.3-1.02h4.34l.4,1.02h.37l-.4-1.02h4.34l.5,1.02h.37l-.51-1.02h3.8ZM15.88,41.01h4.05l-.42,1.4h-4.18l.55-1.4ZM11.49,41.01h4.05l-.56,1.4h-4.18l.69-1.4ZM14.35,44h-4.33l.69-1.4h4.2l-.56,1.4ZM19.04,44h-4.33l.55-1.4h4.2l-.42,1.4ZM23.73,44h-4.33l.4-1.4h4.2l-.27,1.4ZM24.04,42.41h-4.18l.4-1.4h4.05l-.27,1.4ZM28.42,44h-4.33l.26-1.4h4.2l-.13,1.4ZM28.56,42.41h-4.18l.26-1.4h4.05l-.13,1.4ZM33.01,44h-4.23l.12-1.4h4.12v1.4ZM33.01,42.41h-4.1l.12-1.4h3.98v1.4ZM33.37,41.01h3.84l.12,1.4h-3.96v-1.4ZM33.37,44v-1.4h3.98l.12,1.4h-4.1ZM54.75,41.01l.69,1.4h-4.18l-.56-1.4h4.05ZM50.37,41.01l.55,1.4h-4.18l-.42-1.4h4.05ZM37.55,41.01h4.05l.26,1.4h-4.18l-.13-1.4ZM37.83,44l-.13-1.4h4.2l.26,1.4h-4.33ZM41.93,41.01h4.05l.4,1.4h-4.18l-.27-1.4ZM42.52,44l-.27-1.4h4.2l.4,1.4h-4.33ZM47.2,44l-.42-1.4h4.2l.55,1.4h-4.33ZM51.89,44l-.56-1.4h4.2l.69,1.4h-4.33Z"/>
          </g>
          <path class="cls-10" d="M32.25,46.61h-2.74s0,.24.14.38c.05.05.13.08.21.08h4.79c.08,0,.15-.03.21-.08.14-.14.14-.37.14-.38h-2.74Z"/>
        </g>
      </g>
      <g>
        <g>
          <path class="cls-4" d="M51.58,30.59H12.92V7h38.66v23.59ZM13.64,29.87h37.22V7.72H13.64v22.15Z"/>
          <rect class="cls-1" x="42.36" y="12.94" width="3.6" height="15.39"/>
          <rect class="cls-4" x="35.7" y="21.25" width="3.6" height="7.08"/>
          <rect class="cls-8" x="29.04" y="19.54" width="3.6" height="8.79"/>
          <rect class="cls-4" x="22.38" y="14.56" width="3.6" height="13.77"/>
          <rect class="cls-4" x="15.72" y="17.58" width="3.6" height="10.74"/>
        </g>
        <polygon class="cls-10" points="37.58 18.5 30.75 17.15 24.17 10.86 17.63 16.63 17.39 16.36 24.18 10.37 30.93 16.81 37.42 18.1 44.02 8.82 44.31 9.03 37.58 18.5"/>
        <path class="cls-1" d="M18.33,16.5c0,.45-.36.81-.81.81s-.81-.36-.81-.81.36-.81.81-.81.81.36.81.81Z"/>
        <circle class="cls-1" cx="24.13" cy="10.61" r=".81"/>
        <path class="cls-1" d="M31.65,16.97c0,.45-.36.81-.81.81s-.81-.36-.81-.81.36-.81.81-.81.81.36.81.81Z"/>
        <path class="cls-1" d="M38.31,18.12c0,.45-.36.81-.81.81s-.81-.36-.81-.81.36-.81.81-.81.81.36.81.81Z"/>
        <path class="cls-1" d="M44.97,9.08c0,.45-.36.81-.81.81s-.81-.36-.81-.81.36-.81.81-.81.81.36.81.81Z"/>
      </g>
      <g>
        <path class="cls-6" d="M24.02,15.1c.26-.08.51-.16.69-.36.09-.09.16-.19.28-.24.12-.05.23-.16.34-.24.1-.08.22-.19.36-.2.17-.02.08.19,0,.31-.09.14-.56.32-.54.5.02.17.58-.09.69-.15.26-.13.28-.35.44-.56.09-.12.17-.15.23.02.04.13-.05.26-.11.36-.13.21-.32.42-.54.55.18-.08.43-.31.56-.46.09-.11.38-.62.56-.5.36.25-.63,1.16-.86,1.23.23-.09.41-.26.59-.43.11-.1.35-.33.39-.08.06.38-.67.65-.98.83.24-.05.4-.16.63-.28.27-.14.28.11.02.3-.11.08-.35.2-.4.23-.56.27-.91.27-1.5.21-.21-.02-.63.16-.75.02-.24-.26-.12-.76-.11-1.07Z"/>
        <path class="cls-1" d="M24.17,15.03l.44,1.44s-5.1,1.32-6.34,1.51c-1.24.19-3.97-2.92-3.97-2.92,0,0-.93-2.26-.23-2.23.54.02,4.44,3,4.66,3.12.22.12,5.45-.92,5.45-.92Z"/>
        <path class="cls-6" d="M10.81,40.78s-.04.98.13,1.43c.16.46,1.34,1.16,1.34,1.16,0,0-1.07.21-1.47-.11-.41-.32-1.38-1.97-1.32-2.19.06-.22.36-.88.36-.88l.96.58Z"/>
        <path class="cls-6" d="M17.16,40.18s-.04.98.13,1.43c.17.46,1.34,1.16,1.34,1.16,0,0-1.07.21-1.47-.11-.41-.32-1.38-1.97-1.32-2.19.06-.22.36-.88.36-.88l.96.58Z"/>
        <path class="cls-10" d="M9.74,40.78s-.89.3-.67,1.08c.22.78.19,1.79.19,1.79h.26s.06-1.12.22-1.08.54,1.08.91,1.08h2.1s.22-.22,0-.35c-.22-.13-1.65-.07-1.81-.39-.16-.32-1.2-2.12-1.2-2.12Z"/>
        <path class="cls-10" d="M16.13,40.15s-.89.3-.67,1.08c.22.78.19,1.79.19,1.79h.26s.06-1.12.22-1.08.54,1.08.91,1.08h2.1s.22-.22,0-.35c-.22-.13-1.65-.07-1.81-.39-.16-.32-1.2-2.12-1.2-2.12Z"/>
        <path class="cls-8" d="M15.54,20.72s-2.5.88-4.32,0c0,0-1.1.92-1.27,2.81-.05.58-.03,1.28.07,2.12.13,1.05.43,3.79.24,5.49-.28,2.48-1.05,9.68-1.05,9.68l1.73.27s1.59-8.69,1.77-9.76c.19-1.07.79-5.43.79-5.43,0,0,1.07,3.37,1.35,5,.04.25.81,9.48.81,9.48h1.67s-.09-10.26-.09-9.72c0,.22-.45-6.91-1.7-9.93Z"/>
        <path class="cls-5" d="M14.67,27.24c-.38-1.14-.61-1.71-1.38-2.73.08.47.15.93.2,1.41,0-.01,0-.02,0-.02,0,0,.92,2.88,1.28,4.61-.04-1.86.17-2.42-.11-3.25Z"/>
        <path class="cls-7" d="M13.77,10.48c-.17-.04-1-1.79-1.36-2.13-.17,1.2-.89,4.03-.89,4.03.88.94,2.63.36,2.63.36-.29-.62-.42-1.86-.37-2.27Z"/>
        <path class="cls-6" d="M13.42,6.31s1.7.38,2.03.88.33,1.79.51,2.13c.11.21.21.37.26.49.05.11-.07.17-.22.22-.08.03-.13.09-.16.16-.1.31-.38,1.11-.66,1.22-.35.14-2.08.09-2.61-1.43-.52-1.51-.24-4.01.85-3.68Z"/>
        <path class="cls-1" d="M11.78,11.79s1.21.55,2.34.89c0,0,1.37,2.71,1.47,3.47.09.76.8,5.92.8,5.92,0,0-2.72,1.73-6.66.36,0,0,.95-4.07.73-5.67-.22-1.6-.03-3.77,1.33-4.96Z"/>
        <path class="cls-2" d="M11.3,22.83c-.05-1.73.35-3.3.39-5.02.03-1.4-.55-2.19-1.25-3.05-.08.69-.07,1.39.01,2,.22,1.6-.73,5.67-.73,5.67.55.19,1.08.32,1.58.4Z"/>
        <path class="cls-10" d="M9.72,16.57c.96-.8.57-1.59,1.53-2.35.07-.05.14-.11.21-.16.05-.42-.95-.2-.68-.62.39-.59,2.01-1.48,1.98-2.05-.02-.39-.03-.15.04-.54.08-.44.27-.53-.08-.85-.24-.23-.45-.47-.25-.81.16-.28.41-.36.63-.1.06.07.34.64.42.32.02-.09-.1-.27-.11-.37-.02-.15.01-.25.12-.37.17-.18.42-.28.6-.46.22-.23.25-.53.57-.66.16-.06.35-.07.51-.02.08.02.4.24.45.22.55-.22.3-1.07-.07-1.33-.66-.46-1.52-.8-2.34-.79-1,.02-1.91.79-2.49,1.54-.42.54-.39,1.12-.69,1.7-.28.53-.87.8-1.23,1.27-.34.45-.34,1.03-.21,1.56.1.41.22.79.15,1.21-.08.53-.51.92-.65,1.42-.13.46-.21.77-.02,1.45.25.95.82,1.2,1.62.79Z"/>
        <path class="cls-6" d="M8.24,25.17c.02.26.04.51.18.72.07.1.14.19.16.31.02.12.09.25.15.37.05.11.13.24.11.38-.02.16-.19.04-.29-.07-.11-.11-.18-.59-.34-.61-.16-.02-.04.56-.01.68.06.27.26.34.43.53.1.11.11.19-.06.21-.13.01-.23-.1-.31-.18-.17-.17-.33-.39-.39-.62.03.19.19.47.31.62.08.1.5.49.34.63-.31.28-.94-.84-.96-1.07.04.23.16.44.27.64.07.12.23.4-.01.38-.36-.03-.46-.77-.56-1.09,0,.23.06.41.12.65.07.29-.16.24-.29-.04-.05-.12-.11-.37-.13-.42-.13-.58-.06-.9.13-1.44.07-.19-.01-.62.14-.71.3-.17.73.06,1.01.13Z"/>
        <path class="cls-1" d="M8.45,25.18l-1.57.08s-.02-4.64.4-6.22,3.39-5.82,4.07-6.14c.81-.39,3.23.65,1.46,2.02-1.77,1.38-3.46,4.66-3.52,4.79-.07.13-.83,5.46-.83,5.46Z"/>
      </g>
    </g>
    <text class="cls-11" transform="translate(0 58.92)"><tspan x="0" y="0">Lead &amp; Strategy</tspan></text>
  </g>
</svg>