<?xml version="1.0" encoding="UTF-8"?>
<svg id="Layer_2" data-name="Layer 2" xmlns="http://www.w3.org/2000/svg" viewBox="0 0 116.02 91.04">
  <defs>
    <style>
      .cls-1 {
        fill: #fff;
        font-family: Arial-Black, 'Arial Black';
        font-size: 18.97px;
        font-weight: 800;
      }

      .cls-2 {
        fill: #281e10;
      }

      .cls-3 {
        fill: #ff9d66;
      }

      .cls-4 {
        fill: #e6b167;
      }

      .cls-5 {
        fill: #d8b37e;
      }

      .cls-6 {
        fill: #7f5924;
      }

      .cls-7 {
        fill: #66471d;
      }

      .cls-8 {
        fill: #4a3921;
      }

      .cls-9 {
        fill: #368fa8;
      }

      .cls-10 {
        fill: #ffd395;
      }

      .cls-11 {
        fill: #672800;
      }

      .cls-12 {
        fill: #211709;
      }

      .cls-13 {
        fill: #d1a25e;
      }

      .cls-14 {
        letter-spacing: 0em;
      }

      .cls-15 {
        opacity: .1;
      }

      .cls-16 {
        fill: #c2d649;
      }

      .cls-17 {
        fill: #33240f;
      }

      .cls-18 {
        letter-spacing: -.06em;
      }

      .cls-19 {
        fill: #5d411a;
      }

      .cls-20 {
        fill: #edc48a;
      }

      .cls-21 {
        fill: #ffc573;
      }

      .cls-22 {
        letter-spacing: -.03em;
      }

      .cls-23 {
        fill: #382417;
      }

      .cls-24 {
        letter-spacing: .03em;
      }
    </style>
  </defs>
  <g id="OBJECTS">
    <g>
      <path class="cls-23" d="M6.9,45.64c8.51-3.56,19.07-3.56,27.58,0,2.16-4.36,3.64-9.05,3.82-13.84.19-4.96-1.09-10.04-4.11-14.15-.55-.75-1.39-1.51-2.37-2.24-6.65-4.9-15.61-4.9-22.26,0-.99.73-1.82,1.48-2.37,2.24-3.02,4.11-4.29,9.19-4.11,14.15.18,4.79,1.66,9.47,3.82,13.84Z"/>
      <g>
        <path class="cls-16" d="M86.61,46.41h8.38c9.19,0,16.65,7.46,16.65,16.65v1.23h-41.67v-1.23c0-9.19,7.46-16.65,16.65-16.65Z"/>
        <path class="cls-15" d="M94.95,46.41h-8.31c-2.68,0-5.21.63-7.45,1.75,1.59,2.68,3.44,5.17,5.9,7.06,3.23,2.48,7.29,3.73,11.36,4.1,4.06.37,8.16-.08,12.19-.72.76-.12,1.52-.25,2.28-.39-2.07-6.83-8.44-11.8-15.97-11.8Z"/>
        <g>
          <g>
            <ellipse class="cls-6" cx="77.54" cy="31.73" rx="3.67" ry="3.66"/>
            <path class="cls-19" d="M79.54,31.73c0,1.1-.89,1.99-2,1.99s-2-.89-2-1.99.89-1.99,2-1.99,2,.89,2,1.99Z"/>
          </g>
          <g>
            <ellipse class="cls-6" cx="103.89" cy="31.73" rx="3.67" ry="3.66"/>
            <path class="cls-19" d="M105.89,31.73c0,1.1-.89,1.99-2,1.99s-2-.89-2-1.99.89-1.99,2-1.99,2,.89,2,1.99Z"/>
          </g>
        </g>
        <path class="cls-7" d="M96.62,49.44l-.04.02c-3.6,2.23-8.17,2.22-11.76-.02h0v-13.44h11.8v13.44Z"/>
        <path class="cls-15" d="M84.82,36v9.17c2.16,1.83,4.83,2.91,7.74,2.91.64,0,1.28-.06,1.9-.16v2.56c.74-.26,1.45-.6,2.13-1.02l.04-.02v-13.44h-11.8Z"/>
        <ellipse class="cls-6" cx="90.72" cy="32.01" rx="12.91" ry="14.57"/>
        <path class="cls-15" d="M103.6,31.2c-.01-.22-.03-.45-.04-.67,0-.09-.02-.18-.03-.26-.02-.15-.03-.3-.05-.45-.01-.1-.03-.2-.05-.3-.02-.14-.04-.27-.06-.41-.02-.1-.04-.21-.06-.31-.03-.13-.05-.26-.08-.39-.02-.11-.05-.21-.08-.31-.03-.12-.06-.25-.09-.37-.03-.1-.06-.21-.09-.31-.04-.12-.07-.24-.11-.36-.03-.1-.07-.2-.1-.31-.04-.12-.08-.23-.12-.35-.04-.1-.08-.2-.12-.3-.04-.11-.09-.23-.13-.34-.04-.1-.09-.2-.13-.29-.05-.11-.1-.22-.15-.33-.05-.1-.09-.19-.14-.29-.05-.11-.11-.21-.16-.32-.05-.09-.1-.19-.15-.28-.06-.1-.11-.21-.17-.31-.05-.09-.11-.18-.16-.27-.06-.1-.12-.2-.19-.29-.06-.09-.12-.18-.18-.26-.06-.1-.13-.19-.2-.28-.06-.09-.12-.17-.19-.25-.07-.09-.14-.18-.21-.27-.06-.08-.13-.16-.2-.24-.07-.09-.15-.17-.22-.26-.07-.08-.14-.16-.21-.23-.08-.08-.15-.17-.23-.25-.07-.07-.14-.15-.22-.22-.08-.08-.16-.16-.24-.24-.07-.07-.15-.14-.22-.21-.08-.08-.17-.15-.25-.22-.08-.07-.15-.13-.23-.2-.09-.07-.17-.14-.26-.21-.08-.06-.16-.13-.24-.19-.09-.07-.18-.13-.27-.2-.08-.06-.16-.12-.25-.17-.09-.06-.19-.12-.28-.18-.08-.05-.17-.11-.25-.16-.1-.06-.19-.11-.29-.17-.09-.05-.17-.1-.26-.14-.1-.05-.2-.1-.3-.15-.09-.04-.18-.09-.27-.13-.1-.05-.21-.09-.31-.14-.09-.04-.18-.08-.27-.12-.11-.04-.21-.08-.32-.12-.09-.03-.18-.07-.27-.1-.11-.04-.22-.07-.33-.11-.09-.03-.18-.06-.27-.09-.11-.03-.23-.06-.34-.09-.09-.02-.18-.05-.27-.07-.12-.03-.24-.05-.36-.07-.09-.02-.18-.04-.27-.05-.13-.02-.25-.04-.38-.05-.09-.01-.17-.03-.26-.04-.14-.02-.29-.03-.43-.04-.07,0-.14-.01-.21-.02-.22-.01-.44-.02-.65-.02-.3,0-.6.02-.9.04-.07,0-.14.01-.2.02-.3.03-.59.06-.88.12h0s0,0,0,0c-6.19,1.08-10.92,7.11-10.92,14.4,0,.15,0,.3.01.45.73-.31,1.4-.81,1.9-1.37.75-.85,1.17-1.98,1.17-3.11.97.43,2.21.24,3.21-.12,1-.36,1.85-1.12,2.32-2.07.9.67,2.05.84,3.14.62,1.1.22,2.24.05,3.14-.62.47.95,1.32,1.71,2.32,2.07,1,.36,2.24.55,3.21.12,0,1.13.42,2.26,1.17,3.11.53.61,1.27,1.13,2.05,1.44-.15,7.13-4.83,12.99-10.91,14.05.06,0,.12,0,.18,0,7.13,0,12.91-6.52,12.91-14.57,0-.27,0-.54-.02-.81Z"/>
        <g>
          <path class="cls-12" d="M85.37,32.43c0,1.03-.53,1.87-1.18,1.87s-1.18-.84-1.18-1.87.53-1.87,1.18-1.87,1.18.84,1.18,1.87Z"/>
          <path class="cls-12" d="M98.42,32.43c0,1.03-.53,1.87-1.18,1.87s-1.18-.84-1.18-1.87.53-1.87,1.18-1.87,1.18.84,1.18,1.87Z"/>
        </g>
        <path class="cls-17" d="M105.63,23.99c-.11-1.06-.83-2.04-1.81-2.47.14-1.43-.25-3.28-1.28-4.28-1.04-1-2.51-1.55-3.94-1.37-.27-1.39-1.33-2.61-2.68-3.07-1.2-.41-2.71-.32-3.78.37-.45-.19-.95-.26-1.41-.19-.46-.07-.96,0-1.41.19-1.08-.68-2.58-.78-3.78-.37-1.35.46-2.41,1.68-2.68,3.07-1.43-.18-2.9.37-3.94,1.37-1.04,1-1.42,2.85-1.28,4.28-.98.43-1.69,1.41-1.81,2.47-.11,1.06.37,2.17,1.24,2.8-.58.81-.83,1.67-.68,2.65.15.98.7,1.9,1.49,2.51,1.12-.15,2.27-.85,3.01-1.7.75-.85,1.17-1.98,1.17-3.11.97.43,2.21.24,3.21-.12,1-.36,1.85-1.12,2.32-2.07.9.67,2.05.84,3.14.62,1.1.22,2.24.05,3.14-.62.47.95,1.32,1.71,2.32,2.07,1,.36,2.24.55,3.21.12,0,1.13.42,2.26,1.17,3.11.75.85,1.89,1.54,3.01,1.7.8-.6,1.34-1.52,1.49-2.51.15-.98-.1-1.84-.68-2.65.86-.63,1.35-1.74,1.24-2.8Z"/>
      </g>
      <path class="cls-3" d="M16.65,46.41h8.38c9.19,0,16.65,7.46,16.65,16.65v1.23H0v-1.23C0,53.87,7.46,46.41,16.65,46.41Z"/>
      <path class="cls-15" d="M24.99,46.41h-8.31c-2.68,0-5.21.63-7.45,1.75,1.59,2.68,3.44,5.17,5.9,7.06,3.23,2.48,7.29,3.73,11.36,4.1,4.06.37,8.16-.08,12.19-.72.76-.12,1.52-.25,2.28-.39-2.07-6.83-8.44-11.8-15.97-11.8Z"/>
      <g>
        <g>
          <ellipse class="cls-10" cx="7.58" cy="31.73" rx="3.67" ry="3.66"/>
          <path class="cls-5" d="M9.58,31.73c0,1.1-.89,1.99-2,1.99s-2-.89-2-1.99.89-1.99,2-1.99,2,.89,2,1.99Z"/>
        </g>
        <g>
          <ellipse class="cls-10" cx="33.93" cy="31.73" rx="3.67" ry="3.66"/>
          <path class="cls-5" d="M35.93,31.73c0,1.1-.89,1.99-2,1.99s-2-.89-2-1.99.89-1.99,2-1.99,2,.89,2,1.99Z"/>
        </g>
      </g>
      <path class="cls-20" d="M26.66,49.44l-.04.02c-3.6,2.23-8.17,2.22-11.76-.02h0v-13.44h11.8v13.44Z"/>
      <path class="cls-15" d="M14.86,36v9.17c2.16,1.83,4.83,2.91,7.74,2.91.64,0,1.28-.06,1.9-.16v2.56c.74-.26,1.45-.6,2.13-1.02l.04-.02v-13.44h-11.8Z"/>
      <ellipse class="cls-10" cx="20.76" cy="32.01" rx="12.91" ry="14.57"/>
      <path class="cls-15" d="M33.23,35.77c.08-.36.15-.72.21-1.08.01-.07.02-.13.03-.2.06-.37.1-.74.13-1.11,0-.06,0-.12.01-.17.03-.39.05-.79.05-1.19,0-8.05-5.78-14.57-12.91-14.57-.18,0-.37,0-.55.02-.17,0-.34.02-.51.04h0s0,0,0,0c-6.63.61-11.84,6.87-11.84,14.52,0,.11,0,.21,0,.32.11-.19.23-.37.36-.54.78-1.03,1.85-1.79,2.82-2.63.97-.85,1.89-1.85,2.21-3.1.62,1.14,1.82,1.61,3.08,1.92,1.26.31,2.58.29,3.88.37,2.84.17,5.73.82,8.08,2.42,1.27.87,2.36,2.04,3.1,3.39-.87,6.64-5.71,11.81-11.7,12.37.35.03.7.05,1.06.05,5.93,0,10.92-4.52,12.43-10.67.01-.05.03-.1.04-.15Z"/>
      <g>
        <path class="cls-2" d="M15.41,32.43c0,1.03-.53,1.87-1.18,1.87s-1.18-.84-1.18-1.87.53-1.87,1.18-1.87,1.18.84,1.18,1.87Z"/>
        <path class="cls-2" d="M28.46,32.43c0,1.03-.53,1.87-1.18,1.87s-1.18-.84-1.18-1.87.53-1.87,1.18-1.87,1.18.84,1.18,1.87Z"/>
      </g>
      <g>
        <path class="cls-11" d="M48.5,39.42c-4.04-.77-7.42-3.81-9.32-7.49-1.9-3.68-2.46-7.93-2.37-12.07.05-2.29.3-4.62,1.24-6.7.94-2.09,2.65-3.91,4.83-4.52-.11-1.42.72-2.87,1.75-3.85C48.11,1.49,52.97-.27,57.73.03s9.36,2.67,12.4,6.39c2.89,3.53,4.32,8.09,4.81,12.65.34,3.21.24,6.53-.86,9.56-1.63,4.53-5.41,8.1-9.79,10.04-4.38,1.94-9.31,2.36-14.07,1.85-.77-.08-1.94-.35-1.72-1.1Z"/>
        <path class="cls-9" d="M50.95,42.65h10.02c11.1,0,20.11,9.01,20.11,20.11v1.53H30.83v-1.53c0-11.1,9.01-20.11,20.11-20.11Z"/>
        <path class="cls-15" d="M60.97,42.65h-10.02c-3.23,0-6.28.77-8.99,2.12,1.92,3.24,4.15,6.26,7.11,8.55,3.9,3.01,8.8,4.51,13.7,4.96,4.9.45,9.84-.1,14.7-.87.92-.14,1.83-.3,2.75-.48-2.5-8.27-10.17-14.28-19.25-14.28Z"/>
        <g>
          <g>
            <circle class="cls-21" cx="39.97" cy="24.87" r="4.43" transform="translate(-5.87 35.55) rotate(-45)"/>
            <path class="cls-13" d="M42.38,24.87c0,1.33-1.08,2.41-2.41,2.41s-2.41-1.08-2.41-2.41,1.08-2.41,2.41-2.41,2.41,1.08,2.41,2.41Z"/>
          </g>
          <g>
            <circle class="cls-21" cx="71.75" cy="24.87" r="4.43" transform="translate(30.37 88.54) rotate(-76.09)"/>
            <path class="cls-13" d="M74.16,24.87c0,1.33-1.08,2.41-2.41,2.41s-2.41-1.08-2.41-2.41,1.08-2.41,2.41-2.41,2.41,1.08,2.41,2.41Z"/>
          </g>
        </g>
        <path class="cls-4" d="M62.98,46.31l-.04.03c-4.35,2.7-9.85,2.69-14.18-.03h0v-16.27h14.23v16.27Z"/>
        <path class="cls-15" d="M48.75,30.04v11.11c2.6,2.21,5.83,3.52,9.33,3.52.78,0,1.54-.07,2.29-.19v3.1c.89-.32,1.75-.73,2.57-1.24l.04-.03v-16.27h-14.23Z"/>
        <ellipse class="cls-21" cx="55.86" cy="25.21" rx="15.56" ry="17.64"/>
        <path class="cls-15" d="M70.51,31.19c.05-.15.09-.29.13-.44.03-.1.06-.2.09-.31.04-.15.08-.3.12-.45.03-.11.05-.21.08-.32.03-.15.07-.29.1-.44.02-.11.04-.23.07-.35.03-.14.05-.29.08-.43.02-.13.04-.25.06-.38.02-.14.04-.27.06-.41.02-.14.03-.29.05-.43.01-.12.03-.25.04-.37.01-.17.02-.34.03-.52,0-.1.01-.2.02-.3.01-.27.02-.55.02-.83s0-.57-.02-.86c0-.09-.01-.18-.02-.28-.01-.19-.02-.38-.04-.57,0-.11-.02-.22-.03-.33-.02-.17-.04-.34-.06-.51-.01-.11-.03-.23-.05-.34-.02-.16-.05-.33-.08-.49-.02-.11-.04-.23-.06-.34-.03-.16-.06-.32-.1-.48-.02-.11-.05-.22-.07-.33-.04-.17-.08-.33-.12-.49-.03-.1-.05-.2-.08-.3-.05-.19-.11-.38-.17-.57-.02-.07-.04-.14-.06-.2-.08-.25-.17-.5-.26-.74-.03-.09-.07-.18-.11-.27-.06-.16-.12-.31-.18-.46-.05-.11-.09-.21-.14-.32-.06-.13-.12-.27-.18-.4-.05-.11-.11-.22-.16-.33-.06-.12-.12-.24-.19-.36-.06-.11-.12-.22-.18-.33-.06-.11-.13-.23-.19-.34-.06-.11-.13-.22-.2-.33-.07-.11-.13-.21-.2-.32-.07-.11-.14-.22-.21-.33-.07-.1-.14-.2-.2-.29-.08-.11-.15-.22-.24-.33-.03-.05-.07-.09-.1-.13-.2-.27-.41-.53-.62-.78-.06-.07-.12-.14-.18-.21-.1-.11-.2-.22-.3-.34-.07-.07-.13-.14-.2-.21-.1-.11-.21-.22-.32-.32-.07-.07-.13-.13-.2-.2-.11-.11-.22-.21-.33-.31-.07-.06-.13-.12-.2-.18-.12-.1-.23-.2-.35-.3-.06-.05-.13-.1-.19-.16-.13-.1-.25-.2-.38-.3-.05-.04-.1-.07-.15-.11-.66-.49-1.36-.92-2.09-1.29-.05-.02-.09-.05-.14-.07-.15-.08-.31-.15-.47-.22-.06-.03-.12-.06-.18-.08-.15-.07-.31-.13-.47-.19-.07-.03-.13-.05-.2-.08-.16-.06-.32-.12-.47-.17-.06-.02-.13-.04-.19-.06-.16-.05-.33-.1-.5-.15-.05-.01-.11-.03-.16-.04-1.15-.3-2.34-.47-3.57-.47-1.51,0-2.97.25-4.35.7.48-.05.96-.08,1.45-.08.68,0,1.36.06,2.02.15-1.74.36-3.44.91-5.07,1.63-1.86.83-3.62,1.86-5.29,3.03-2.68,3.17-4.33,7.46-4.33,12.2,0,.63.03,1.25.09,1.87.54-1.04,1.31-2.01,2.1-2.89,1.6-1.79,3.44-3.52,4.12-5.82,3.15,2.67,6.73,4.6,10.78,5.37-.14-.24-.28-.48-.43-.73,2.74.55,5.53,1.1,8.02,2.37,1.27.64,2.46,1.49,3.43,2.53-.73,7.1-5.19,12.91-11.1,14.86,6.06-.64,11.1-5.21,13.14-11.44,0,0,0,0,0,0,.02-.05.03-.1.05-.15Z"/>
        <path class="cls-11" d="M37.69,20.76c.3,2.85,1.24,5.63,2.74,8.08-.33-2.38,1.2-4.51,2.8-6.3,1.6-1.79,3.44-3.52,4.12-5.82,3.15,2.67,6.73,4.6,10.78,5.37-.14-.24-.28-.48-.43-.73,2.74.55,5.53,1.1,8.02,2.37,2.5,1.27,4.71,3.35,5.49,6.04,1.64-2.78,2.02-5.91,1.59-9.11-.42-3.2-1.69-6.24-3.33-9.02-.94-1.59-2.04-3.16-3.63-4.11-1.21-.72-2.63-1.04-4.04-1.18-3.8-.38-7.67.43-11.16,1.98-3.49,1.55-6.63,3.82-9.47,6.38-1.69,1.52-3.74,3.79-3.5,6.05Z"/>
        <g>
          <path class="cls-8" d="M49.42,25.72c0,1.25-.64,2.26-1.42,2.26s-1.42-1.01-1.42-2.26.64-2.26,1.42-2.26,1.42,1.01,1.42,2.26Z"/>
          <ellipse class="cls-8" cx="63.73" cy="25.72" rx="1.42" ry="2.26"/>
        </g>
      </g>
      <path class="cls-23" d="M4.27,28.13c1.19,2.57,2.47,5.09,3.85,7.57-.47-1.84-.05-3.89,1.1-5.41.78-1.03,1.85-1.79,2.82-2.63s1.89-1.85,2.21-3.1c.62,1.14,1.82,1.61,3.08,1.92,1.26.31,2.58.29,3.88.37,2.84.17,5.73.82,8.08,2.42,2.35,1.6,4.1,4.27,4.08,7.12,3.09-4.87,2.63-11.19.14-16.39-1.04-2.17-2.48-4.22-4.51-5.5-2.21-1.39-4.95-1.76-7.53-1.44s-5.05,1.28-7.41,2.39c-2.47,1.16-4.9,2.52-6.75,4.52-1.85,2-4.17,5.69-3.03,8.17Z"/>
    </g>
    <text class="cls-1" transform="translate(0 85.22)"><tspan class="cls-18" x="0" y="0">T</tspan><tspan class="cls-14" x="12.56" y="0">eam </tspan><tspan class="cls-22" x="63.18" y="0">W</tspan><tspan x="81.66" y="0">o</tspan><tspan class="cls-24" x="94.31" y="0">r</tspan><tspan x="103.37" y="0">k</tspan></text>
  </g>
</svg>